<svg width="24" height="24" viewBox="0 0 24 24" fill="none" xmlns="http://www.w3.org/2000/svg">
<path fill-rule="evenodd" clip-rule="evenodd" d="M12.0909 2C7.07778 2 3 6.03793 3 10.9998L3.05152 18.9997C3.29899 20.6907 4.75859 21.9996 6.53535 21.9996C7.72121 21.9996 8.6303 21.5826 9.23434 20.8257C9.60999 21.199 10.0566 21.4951 10.5485 21.6966C11.0403 21.8982 11.5676 22.0013 12.0999 22C12.6322 21.9987 13.159 21.893 13.6498 21.689C14.1407 21.4851 14.5858 21.1869 14.9596 20.8117C15.5667 21.5736 16.4788 21.9996 17.6465 21.9996C19.596 21.9996 21.1818 20.4297 21.1818 18.4997V10.9998C21.1818 6.03793 17.104 2 12.0909 2ZM8.92339 12.9661C10.1507 12.9661 11.1456 11.9712 11.1456 10.7439C11.1456 9.51662 10.1507 8.5217 8.92339 8.5217C7.69609 8.5217 6.70117 9.51662 6.70117 10.7439C6.70117 11.9712 7.69609 12.9661 8.92339 12.9661ZM17.8121 10.7439C17.8121 11.9712 16.8172 12.9661 15.5899 12.9661C14.3626 12.9661 13.3677 11.9712 13.3677 10.7439C13.3677 9.51662 14.3626 8.5217 15.5899 8.5217C16.8172 8.5217 17.8121 9.51662 17.8121 10.7439Z" fill="#5856D6"/>
</svg>
